# xmcd
#
# Track frame offsets:
#	150
#	13999
#	27707
#	46432
#	69761
#
# Disc length: 1580 seconds
#
# Revision: 1
# Processed by: cddbd v1.5.2PL0 Copyright (c) Steve Scherf et al.
# Submitted via: audiograbber 1.83.01
#
DISCID=3f062a05
DTITLE=Sha - Vergiss Mich
DYEAR=2007
DGENRE=R&B
TTITLE0=Vergiss Mich (Radio Edit)
TTITLE1=Vergiss Mich (Instromental)
TTITLE2=Vergiss Mich (Rockstroh Remix)
TTITLE3=Mein Spiel
TTITLE4=Daten-CD
EXTD=
EXTT0=
EXTT1=
EXTT2=
EXTT3=
EXTT4=
PLAYORDER=
